<?xml version="1.0" encoding="utf-8"?>
<!-- Generator: Adobe Illustrator 23.0.1, SVG Export Plug-In . SVG Version: 6.00 Build 0)  -->
<svg version="1.1" id="Layer_1" xmlns="http://www.w3.org/2000/svg" xmlns:xlink="http://www.w3.org/1999/xlink" x="0px" y="0px"
	 viewBox="0 0 1080.2 328.8" height="100" style="enable-background:new 0 0 1080.2 228.8; " xml:space="preserve">
<style type="text/css">
	.st0{fill:#64AD60;}
	.st1{fill:#FFBC00;}
	.st2{fill:#DC2229;}
	.st3{fill:none;stroke:#000000;stroke-width:2;}
	.st4{fill:none;stroke:#000000;stroke-width:4;}
	.st5{fill:none;stroke:#FFFFFF;stroke-width:12;}
	.st6{stroke:#000000;stroke-width:1.09;}
	.st7{opacity:0.96;enable-background:new    ;}
	.st8{fill:#414042;}
	.st9{fill:#F9F9F9;}
</style>
<title>header3</title>
<g>
	<g id="Layer_2-2">
		<g id="left_pattern">
			<rect x="0.3" y="0.3" class="st0" width="34.2" height="108"/>
			<rect x="34.6" y="0.3" class="st1" width="34.2" height="108"/>
			<rect x="68.8" y="0.3" class="st2" width="34.2" height="108"/>
			<rect x="237.8" y="0.3" class="st2" width="33.1" height="108"/>
			<rect x="103" y="0.3" class="st1" width="34.2" height="108"/>
			<rect x="203.5" y="0.3" class="st1" width="34.2" height="108"/>
			<rect x="270.9" y="0.3" class="st1" width="33.1" height="108"/>
			<rect x="137.3" y="0.3" class="st0" width="34.2" height="108"/>
			<rect x="171.5" y="0.3" class="st0" width="32" height="108"/>
			<rect x="304" y="0.3" class="st0" width="33.7" height="108"/>
			<rect x="337.7" y="0.3" class="st0" width="33.7" height="108"/>
			<rect x="402.6" y="0.3" class="st2" width="36.1" height="108"/>
			<rect x="368.4" y="0.3" class="st1" width="34.2" height="108"/>
			<rect x="438.7" y="0.3" class="st1" width="34.3" height="108"/>
			<rect x="336.3" y="0.3" class="st0" width="32" height="108"/>
			<rect x="473" y="0.3" class="st0" width="33.7" height="108"/>
			<rect x="506.8" y="0.3" class="st0" width="33.7" height="108"/>
			<path id="path14699" class="st3" d="M68.8,0.3v108"/>
			<path id="path14699-2" class="st3" d="M103,0.3v108"/>
			<path id="path14699-3" d="M237.8,0.3v108"/>
			<path id="path14699-4" class="st3" d="M402.6,0.3v108"/>
			<path id="path14699-5" class="st3" d="M437.8,0.3v108"/>
			<path id="path14699-6" class="st3" d="M270.9,0.3v108"/>
			<path id="path14713" class="st4" d="M171.5,0.3v108"/>
			<path id="path14713-2" class="st4" d="M336.3,0.3v108"/>
			<path id="path14713-3" class="st4" d="M506.8,0.3v108"/>
		</g>
		<g id="right_pattern">
			<rect x="540.5" y="0.3" width="539.4" height="108"/>
			<polygon class="st1" points="608.5,0.3 608.5,0.3 563.1,108.3 653.4,108.3 			"/>
			<polygon class="st1" points="743.1,0.3 743.1,0.3 697.8,108.3 788,108.3 			"/>
			<polygon class="st1" points="877.8,0.3 877.8,0.3 832.4,108.3 922.7,108.3 			"/>
			<polygon class="st1" points="1012.4,0.3 1012.4,0.3 967.1,108.3 1057.3,108.3 			"/>
		</g>
		<path id="white_stripe" class="st5" d="M540.5,0.3v108"/>
		<g id="brand_header">
			<rect id="rect14993" x="0.8" y="108.3" class="st6" width="1079.1" height="220.3"/>
			<g id="logo">
				<rect id="rect14999" x="166.1" y="141" class="st7" width="155.2" height="154.8"/>
				<g id="g15011">
					<polygon id="polygon15001" class="st2" points="216.6,252.2 209.7,245.4 203.4,251.6 210.3,258.5 230.4,278.6 236.8,272.3 
											"/>
					<polygon id="polygon15003" class="st8" points="260.3,208.7 260.3,215.6 260.3,222.4 260.3,228.1 263.2,225.3 266.6,221.9 
						270.1,218.4 270.1,185.2 270.1,151.9 260.3,161.7 260.3,185.2 					"/>
					<polygon id="polygon15005" class="st1" points="253.4,235 236.8,251.6 243.7,258.5 260.3,241.9 266.6,235.6 270.1,232.2 
						270.1,225.3 270.1,218.4 266.6,221.9 263.2,225.3 260.3,228.1 259.7,228.7 256.3,232.2 					"/>
					<polygon id="polygon15007" class="st8" points="217.2,232.2 213.2,232.2 213.2,229.3 210.3,232.2 206.9,235.6 213.2,241.9 
						220.1,248.8 236.8,265.4 243.7,258.5 227,241.9 220.1,235 					"/>
					<polyline id="polyline15009" class="st8" points="236.8,284.9 270.1,251.6 269.8,239.4 230.4,278.6 					"/>
				</g>
				<path id="path15013" class="st8" d="M316.5,145.8v145.3H170.8V145.8H316.5 M326,136.3H161.3v164.3H326V136.3z"/>
			</g>
			<g id="justvybz">
				<path id="J" class="st9" d="M398.6,162v89.4c0,25.2-11.6,37.8-34.9,37.8c-2.2,0-4.6-0.1-7.2-0.4v-19.3c1.2,0.2,2.5,0.3,3.8,0.4
					c9.2,0,13.8-6,13.8-18.1V162H398.6z"/>
				<path id="u" class="st9" d="M455,260.4v-9.5c-6.2,7.2-13.4,10.8-21.5,10.8c-7.3,0-13.2-2.2-17.7-6.7c-4.5-4.5-6.8-10.6-6.8-18.5
					v-42.6h21V235c0,8.4,3.5,12.7,10.5,12.7c3.9,0,7.6-1.7,10.1-4.6c2.8-3.1,4.2-5.3,4.2-6.8v-42.4H476v66.5H455z"/>
				<path id="s" class="st9" d="M537.2,198.9v14.9c-8-4.9-15.4-7.3-22.3-7.3c-5,0-7.6,1.7-7.6,5.1c0.1,1.1,0.7,2,1.6,2.6
					c1.1,0.9,5.1,2.7,12.2,5.5s12.1,6,15,9.7c2.8,3.4,4.4,7.7,4.4,12.1c0,6.9-2.4,12.2-7.1,16c-4.7,3.8-11.4,5.6-20.1,5.7
					c-8.2,0.1-16.4-1.5-23.9-4.9v-14.7c8.6,3.8,15.8,5.6,21.5,5.6c6.8,0,10.2-1.6,10.2-4.9c-0.1-1.4-0.8-2.7-1.9-3.6
					c-1.3-1.1-5.5-3.1-12.6-5.9c-7.2-2.8-12-5.9-14.7-9.2c-2.6-3.1-4-7.1-4-11.1c-0.1-5.9,2.8-11.4,7.6-14.8
					c5.1-3.8,11.7-5.7,20-5.7C523.1,193.8,530.5,195.5,537.2,198.9z"/>
				<path id="t" class="st9" d="M602.5,193.9v14.3h-24.3v27.4c-0.2,2.9,0.8,5.7,2.7,7.8c2,2,4.7,3,7.5,2.9c4.3,0,9-1.3,14.1-3.9
					v15.2c-6.1,2.7-12.7,4.1-19.4,4.2c-8.2,0-14.6-2.1-19.1-6.3c-4.5-4.2-6.8-10.4-6.8-18.6v-28.5h-9.5v-4.1l27.9-31.1h2.6v20.9
					L602.5,193.9z"/>
				<path id="v" class="st9" d="M641.3,261.7l-30.8-67.8h22.5l14.1,36.7l14.4-36.6h22.3L653,261.7L641.3,261.7z"/>
				<path id="y" class="st9" d="M765.2,193.9l-44.7,98.5h-22.3l19.6-42.8l-26.1-55.7h22.4l14.1,34.3l15-34.3H765.2z"/>
				<path id="b" class="st9" d="M793.3,162v35.6c5.1-3.3,11.1-5,17.2-5.1c9.6,0,17.4,3.2,23.5,9.6c6.1,6.4,9.1,14.7,9.1,24.8
					c0,10.2-2.9,18.5-8.7,25c-5.8,6.5-13.3,9.7-22.4,9.7c-6.7-0.1-13.3-2.3-18.7-6.4v5.1h-21V162H793.3z M793.3,211.2V242
					c4.2,3.8,8.4,5.6,12.4,5.6c4.6,0.2,9-1.9,11.8-5.6c2.9-3.7,4.3-8.9,4.3-15.5c0-6.4-1.5-11.3-4.5-14.8c-2.9-3.5-7.3-5.4-11.8-5.3
					C801.6,206.5,797.6,208.1,793.3,211.2z"/>
				<path id="z" class="st9" d="M854.2,196.1h65.2l-34.2,52.2h34.2v14.3h-68.5l34.3-52.2h-30.9V196.1z"/>
			</g>
		</g>
	</g>
</g>
</svg>
